<svg width="18" height="14" viewBox="0 0 18 14" fill="none" xmlns="http://www.w3.org/2000/svg">
<path fill-rule="evenodd" clip-rule="evenodd" d="M4.41665 3.52778C4.41665 2.33883 5.38048 1.375 6.56942 1.375C7.75837 1.375 8.7222 2.33883 8.7222 3.52778C8.7222 4.71672 7.75837 5.68056 6.56942 5.68056C5.38048 5.68056 4.41665 4.71672 4.41665 3.52778ZM6.56942 0.125C4.69012 0.125 3.16665 1.64848 3.16665 3.52778C3.16665 5.40708 4.69012 6.93055 6.56942 6.93055C8.44873 6.93055 9.9722 5.40708 9.9722 3.52778C9.9722 1.64848 8.44873 0.125 6.56942 0.125ZM4.1388 8.45833C3.23633 8.45833 2.37082 8.81684 1.73267 9.45498C1.09453 10.0931 0.736023 10.9586 0.736023 11.8611V13.25C0.736023 13.5952 1.01584 13.875 1.36102 13.875C1.7062 13.875 1.98602 13.5952 1.98602 13.25V11.8611C1.98602 11.2902 2.21283 10.7426 2.61656 10.3389C3.02028 9.93514 3.56785 9.70833 4.1388 9.70833H8.99991C9.57086 9.70833 10.1184 9.93514 10.5222 10.3389C10.9259 10.7426 11.1527 11.2902 11.1527 11.8611V13.25C11.1527 13.5952 11.4325 13.875 11.7777 13.875C12.1229 13.875 12.4027 13.5952 12.4027 13.25V11.8611C12.4027 10.9586 12.0442 10.0931 11.406 9.45498C10.7679 8.81684 9.90238 8.45833 8.99991 8.45833H4.1388ZM14.5556 3.59709C14.9008 3.59709 15.1806 3.87691 15.1806 4.22209V5.68042H16.6389C16.9841 5.68042 17.2639 5.96024 17.2639 6.30542C17.2639 6.6506 16.9841 6.93042 16.6389 6.93042H15.1806V8.38875C15.1806 8.73393 14.9008 9.01375 14.5556 9.01375C14.2104 9.01375 13.9306 8.73393 13.9306 8.38875V6.93042H12.4723C12.1271 6.93042 11.8473 6.6506 11.8473 6.30542C11.8473 5.96024 12.1271 5.68042 12.4723 5.68042H13.9306V4.22209C13.9306 3.87691 14.2104 3.59709 14.5556 3.59709Z" fill="#1D2433"/>
</svg>
